<?xml version="1.0" encoding="UTF-8"?>
<svg width="752pt" height="752pt" version="1.1" viewBox="0 0 752 752" xmlns="http://www.w3.org/2000/svg">
 <g>
  <path d="m414.36 355.64c4.2617 2.8398 9.9453 4.2617 15.629 2.3672 7.5781-2.3672 12.785-9.9453 12.785-17.996v-16.574c6.6289-3.7891 11.367-10.418 12.312-18.469l3.3164-24.152c1.8945-12.785-2.3672-26.047-10.891-35.992l-21.312-24.625v-19.418c0-3.3164-2.3672-5.6836-5.6836-5.6836-3.3164 0-5.6836 2.3672-5.6836 5.6836v21.785c0 1.4219 0.47266 2.8398 1.4219 3.7891l22.73 26.047c6.6289 7.5781 9.4727 17.051 8.0508 26.992l-3.3164 24.152c-0.94531 7.1055-7.1055 12.312-14.207 11.84l-29.363-0.47266c-3.7891 0-6.6289-2.8398-6.6289-6.6289 0-1.8945 0.94531-3.3164 1.8945-4.7344 1.4219-1.4219 2.8398-1.8945 4.7344-1.8945l19.891 0.94531c2.8398 0 5.2109-1.8945 5.6836-4.7344l1.8945-12.785c0.47266-3.3164-1.8945-6.1562-4.7344-6.6289-2.8398-0.47266-6.1562 1.8945-6.6289 4.7344l-0.94531 6.6289c-19.891-9.4727-18.469-28.887-18.469-29.836 0.47266-3.3164-1.8945-5.6836-5.2109-6.1562h-0.47266c-2.8398 0-5.2109 2.3672-5.6836 5.2109-0.94531 8.0508 1.4219 21.312 11.367 31.73-3.7891 0.47266-7.5781 1.8945-10.418 4.7344-1.4219 1.4219-2.3672 2.8398-3.3164 4.2617-2.8398-1.8945-6.1562-2.8398-9.9453-2.8398-5.6836 0-10.891 2.8398-14.207 7.1055-2.8398-2.3672-6.6289-3.3164-10.418-3.3164-2.8398 0-5.2109 0.47266-7.5781 1.8945-2.8398-16.102-3.3164-32.676-3.3164-44.516 0-10.418 5.6836-19.891 14.207-25.574l5.2109-3.3164c1.8945-0.94531 2.8398-2.8398 2.8398-4.7344v-22.73c0-3.3164-2.3672-5.6836-5.6836-5.6836s-5.6836 2.3672-5.6836 5.6836v19.418l-0.94922 0.46484c-12.312 7.5781-19.418 20.836-19.891 35.047 0 14.68 0.47266 35.992 5.2109 55.41-0.47266 1.8945-0.94531 3.7891-0.94531 5.6836v18.469c0 9.9453 8.0508 18.941 17.996 18.941 4.2617 0 7.5781-1.4219 10.891-3.3164 3.3164 4.2617 8.5234 7.1055 14.207 7.1055 3.7891 0 7.5781-1.4219 10.418-3.3164 3.3164 4.2617 8.5234 7.5781 14.68 7.5781 5.6836-0.47266 10.895-3.3164 14.211-7.5781zm3.3125-29.359 11.367 0.47266h1.8945v14.207c0 3.7891-2.8398 6.6289-6.6289 6.6289-3.7891 0-6.6289-2.8398-6.6289-6.6289zm-60.617 10.891c0 3.7891-2.8398 6.6289-6.6289 6.6289-3.7891 0-6.6289-2.8398-6.6289-6.6289v-19.418c0-3.7891 2.8398-6.6289 6.6289-6.6289 3.7891 0 6.6289 2.8398 6.6289 6.6289zm24.625 3.3164c0 3.7891-2.8398 6.6289-6.6289 6.6289-3.7891 0-6.6289-2.8398-6.6289-6.6289v-26.047c0-3.7891 2.8398-6.6289 6.6289-6.6289 3.7891 0 6.6289 2.8398 6.6289 6.6289zm11.367 4.2617v-20.363c2.3672 0.94531 4.7344 1.4219 7.1055 1.8945h6.1562v18.469c0 3.7891-2.8398 6.6289-6.6289 6.6289-3.793 0-6.6328-2.8398-6.6328-6.6289z"/>
  <path d="m354.69 410.57c-4.2617-1.8945-9.4727-2.3672-13.734-0.47266l-42.621 15.629 28.414-23.68c7.5781-6.1562 8.5234-17.996 2.3672-25.574-6.6289-7.5781-17.996-8.5234-25.574-2.3672l-50.672 42.145c-6.6289-4.7344-15.629-5.6836-23.68-2.3672l-22.73 9.4727c-12.312 5.2109-21.312 15.156-25.574 27.469l-10.418 30.781-17.051 9.9453c-2.8398 1.4219-3.7891 5.2109-1.8945 7.5781 1.8945 2.3672 5.2109 3.7891 7.5781 1.8945l18.941-10.891c1.4219-0.47266 1.8945-1.8945 2.3672-3.3164l10.891-32.676c3.3164-9.4727 9.9453-17.051 19.418-20.836l22.73-9.4727c6.6289-2.8398 13.734 0 17.523 5.6836v0.47266l14.207 25.574c1.8945 3.3164 0.47266 7.1055-2.3672 8.9961-1.418 1.418-3.3125 1.418-5.207 0.94531-1.8945-0.47266-3.3164-1.8945-3.7891-3.3164l-9.4727-17.996c-1.4219-2.3672-4.2617-3.7891-7.1055-2.8398l-11.84 4.7344c-2.8398 0.94531-4.2617 4.2617-3.3164 7.1055 0.94531 2.8398 4.2617 4.2617 7.1055 3.3164l6.1562-2.3672c1.8945 21.785-15.629 30.309-16.574 30.781-2.8398 1.4219-4.2617 4.7344-2.8398 7.5781 0 0 0 0.47266 0.47266 0.47266 1.4219 2.3672 4.7344 3.7891 7.1055 2.3672 7.1055-3.3164 17.523-11.84 21.785-25.574 2.3672 2.8398 5.6836 5.2109 9.4727 6.1562 1.8945 0.47266 3.7891 0.94531 6.1562 0.47266 0 2.3672 0 5.2109 0.94531 7.5781 0.47266 0.94531 0.94531 1.8945 1.4219 2.8398 2.3672 3.7891 6.1562 6.6289 9.9453 8.0508-1.4219 4.2656-1.4219 8.0547 0 11.844 0.47266 0.94531 0.94531 1.8945 1.4219 2.8398 1.4219 2.3672 3.3164 4.2617 5.2109 5.6836-11.84 9.4727-24.625 17.051-34.098 22.73-8.9961 5.2109-19.891 5.2109-29.363 0.47266l-5.6836-2.8398c-1.8945-0.94531-3.7891-0.94531-5.6836 0l-19.418 10.895c-2.8398 1.4219-3.7891 5.2109-1.8945 7.5781 1.4219 2.8398 5.2109 3.7891 7.5781 1.8945l17.051-9.9453 2.8398 1.4219c12.785 6.6289 27.941 6.6289 40.254-0.47266 11.84-6.6289 28.414-17.051 42.621-29.363 0.94531 0 1.4219-0.47266 2.3672-0.47266l17.996-6.6289c9.4727-3.3164 14.207-13.734 10.891-23.207-1.4219-3.7891-3.7891-6.6289-7.1055-8.5234 0.47266-0.47266 0.94531-1.4219 1.4219-1.8945 1.8945-4.2617 2.3672-9.4727 0.47266-13.734-0.94531-2.3672-1.8945-4.2617-3.3164-5.6836l36.465-13.262c4.7344-1.4219 8.0508-4.7344 10.418-9.4727 1.8945-4.2617 2.3672-9.4727 0.47266-13.734-1.8867-4.7383-5.1992-8.0508-9.4609-10.418zm-93.77 14.207s0-0.47266-0.47266-0.47266l49.727-41.676c2.8398-2.3672 7.1055-1.8945 9.4727 0.94531 0.47266 0.47266 0.47266 0.47266 0.47266 0.94531 1.4219 2.8398 0.94531 6.6289-1.4219 8.5234l-51.621 43.098zm14.68 59.672c-1.4219-0.94531-2.8398-1.8945-3.3164-3.7891-1.4219-3.3164 0.47266-7.5781 3.7891-8.5234l24.625-8.9961c1.8945-0.47266 3.3164-0.47266 5.2109 0 1.4219 0.47266 2.3672 1.4219 2.8398 2.8398 0 0.47266 0.47266 0.47266 0.47266 0.94531 0.47266 1.8945 0.47266 3.3164-0.47266 5.2109-0.94531 1.4219-1.8945 2.8398-3.7891 3.3164l-24.625 8.9961c-1.418 0.94531-3.3125 0.94531-4.7344 0zm38.836 12.312c-0.94531 1.4219-1.8945 2.8398-3.7891 3.3164l-17.996 6.6289c-1.8945 0.47266-3.3164 0.47266-5.2109 0-1.8945-0.47266-2.8398-1.8945-3.3164-3.7891-0.47266-1.8945-0.47266-3.3164 0-5.2109 0.94531-1.4219 2.3672-2.8398 3.7891-3.3164l17.996-6.6289c3.3164-1.4219 7.5781 0.47266 8.5234 3.7891 0.94922 1.8945 0.94922 3.3164 0.003906 5.2109zm38.359-66.777c-0.94531 1.4219-1.8945 2.8398-3.7891 3.3164l-71.984 26.047c0-2.8398-0.47266-6.1562-1.8945-8.9961l-1.8945-3.7891 71.512-26.047c1.8945-0.47266 3.3164-0.47266 5.2109 0 1.4219 0.94531 2.8398 1.8945 3.3164 3.7891 0.46875 2.3672 0.46875 3.7852-0.47656 5.6797z"/>
  <path d="m598.11 487.29-16.574-9.4727-8.5234-27.941c-3.7891-13.262-12.785-24.152-25.102-30.781l-35.52-18.941c-8.5234-4.7344-18.941-1.8945-24.152 6.6289-0.47266 0.47266-0.47266 1.4219-0.94531 1.8945l-38.359-21.312c-8.5234-4.7344-19.891-1.8945-24.625 6.6289-1.4219 2.3672-1.8945 5.2109-2.3672 8.0508-7.1055-0.94531-14.207 2.3672-17.996 8.9961-3.7891 6.6289-2.8398 14.68 1.4219 19.891-2.3672 1.4219-4.2617 3.3164-5.6836 6.1562-4.7344 8.5234-1.8945 19.891 6.6289 24.625l6.6289 3.7891c-1.8945 1.4219-3.3164 3.3164-4.2617 5.2109-4.7344 8.5234-1.8945 19.891 6.6289 24.625l24.152 13.734c5.6836 3.3164 11.84 7.1055 18.469 12.785l0.94531 0.47266c15.156 11.84 54.934 42.621 83.824 24.152l16.574 9.4727c2.8398 1.4219 6.1562 0.47266 7.5781-2.3672 1.4219-2.8398 0.47266-6.1562-2.3672-7.5781l-19.418-10.891c-1.8945-0.94531-4.2617-0.94531-6.1562 0.47266-22.258 17.523-59.199-11.367-73.406-22.258l-0.94531-0.47266c-7.1055-5.6836-13.734-9.9453-19.891-13.262l-24.152-13.734c-3.3164-1.8945-4.2617-5.6836-2.3672-8.9961 1.8945-3.3164 6.1562-4.2617 8.9961-2.3672l35.52 19.891c2.8398 1.4219 6.1562 0.47266 7.5781-2.3672 1.4219-2.8398 0.47266-6.1562-2.3672-7.5781l-55.406-32.676c-3.3164-1.8945-4.2617-6.1562-2.3672-8.9961 1.8945-3.3164 5.6836-4.2617 8.9961-2.3672l48.777 27.469c2.8398 1.4219 6.1562 0.47266 7.5781-1.8945 1.4219-2.8398 0.47266-6.1562-2.3672-7.5781l-56.828-32.203c-3.3164-1.8945-4.2617-6.1562-2.3672-8.9961 1.8945-3.3164 6.1562-4.2617 8.9961-2.3672l52.566 29.836c2.8398 1.4219 6.1562 0.47266 7.5781-2.3672s0.47266-6.1562-2.3672-7.5781l-44.516-25.102c-3.3164-1.8945-4.2617-6.1562-2.3672-8.9961 1.8945-3.3164 5.6836-4.2617 8.9961-2.3672l42.621 24.152c1.4219 4.7344 4.2617 8.9961 8.5234 11.367l12.312 7.1055c-9.9453 39.781 21.312 53.043 21.785 53.043 2.8398 0.94531 5.6836 0 7.1055-2.3672 0 0 0-0.47266 0.47266-0.47266 0.94531-2.8398-0.47266-6.1562-3.3164-7.1055-0.94531-0.47266-21.312-8.9961-16.102-36.465 1.4219 0.94531 3.3164 2.3672 4.7344 3.7891l2.8398 2.3672c2.3672 1.8945 5.6836 1.8945 8.0508-0.47266 1.8945-2.3672 1.8945-5.6836-0.47266-8.0508l-2.8398-2.3672c-2.8398-5.2227-6.1523-8.0625-10.418-9.957l-17.996-10.418c-1.8945-0.94531-2.8398-2.3672-3.3164-4.2617-0.47266-1.8945 0-3.7891 0.94531-5.2109 1.8945-3.3164 6.1562-4.2617 8.9961-2.3672l35.52 18.941c9.4727 5.2109 16.574 13.734 19.891 24.152l8.9961 30.309c0.47266 1.4219 1.4219 2.3672 2.8398 3.3164l18.469 10.418c2.8398 1.4219 6.1562 0.47266 7.5781-2.3672 1.9023-2.8398 0.95703-6.6289-1.8867-8.0508z"/>
 </g>
</svg>
